<svg width="56" height="56" viewBox="0 0 56 56" fill="none" xmlns="http://www.w3.org/2000/svg">
<path opacity="0.4" d="M41.0916 0H14.9333C5.40089 0 0 5.40089 0 14.9333V41.0667C0 50.5991 5.40089 56 14.9333 56H41.0916C50.624 56 56 50.5991 56 41.0667V14.9333C56 5.40089 50.624 0 41.0916 0Z" fill="#1974FF"/>
<path d="M15.4866 21C14.123 21 13 22.05 13 23.35V42.675C13 43.95 14.123 45 15.4866 45C16.877 45 18 43.95 18 42.675V23.35C18 22.05 16.877 21 15.4866 21Z" fill="#1974FF"/>
<path d="M28.4866 11C27.123 11 26 12.0429 26 13.3341V41.6907C26 42.9571 27.123 44 28.4866 44C29.877 44 31 42.9571 31 41.6907V13.3341C31 12.0429 29.877 11 28.4866 11Z" fill="#1974FF"/>
<path d="M40.5134 31C39.123 31 38 32.0652 38 33.3841V42.6413C38 43.9348 39.123 45 40.4866 45C41.877 45 43 43.9348 43 42.6413V33.3841C43 32.0652 41.877 31 40.5134 31Z" fill="#1974FF"/>
</svg>
