<svg width="465" height="81" viewBox="0 0 465 81" fill="none" xmlns="http://www.w3.org/2000/svg">
<path d="M262.294 3.96381L262.629 4.33551L262.294 3.96381ZM279.706 18.7829L279.374 18.4085V18.4085L279.706 18.7829ZM279.706 3.96381L279.371 4.33551V4.33551L279.706 3.96381ZM281.4 25.9337H281.9V25.4337H281.4V25.9337ZM281.4 79V79.5H281.9V79H281.4ZM260.506 25.9337V25.4337H260.006V25.9337H260.506ZM260.506 79H260.006V79.5H260.506V79ZM144 9H144.5V8.5H144V9ZM144 79V79.5H144.5V79H144ZM123 9V8.5H122.5V9H123ZM123 79H122.5V79.5H123V79ZM1.19048 57.7909V57.2909H0.659005L0.691406 57.8214L1.19048 57.7909ZM23.6667 57.7909L24.165 57.7499L24.1272 57.2909H23.6667V57.7909ZM22.1429 53.3301L22.3005 52.8556L22.2984 52.8549L22.1429 53.3301ZM4.14286 42.6052L4.54557 42.3089H4.54557L4.14286 42.6052ZM4.38095 20.3487L4.78393 20.6447H4.78393L4.38095 20.3487ZM13.619 13.3728L13.4313 12.9093L13.619 13.3728ZM53.8571 32.7345V33.2345H54.3898L54.3561 32.7029L53.8571 32.7345ZM31.0952 32.7345L30.5972 32.7791L30.638 33.2345H31.0952V32.7345ZM33.6667 37.3851L33.8326 36.9135L33.8321 36.9133L33.6667 37.3851ZM63.6175 37.8936L64.0499 38.1446L63.6175 37.8936ZM63.6175 67.1064L64.0499 66.8554L63.6175 67.1064ZM73.6242 76.6696L73.393 77.1129L73.6242 76.6696ZM102.376 76.6696L102.607 77.1129L102.376 76.6696ZM112.383 67.1064L112.815 67.3574V67.3574L112.383 67.1064ZM112.383 37.8936L112.815 37.6426L112.383 37.8936ZM83.1141 45.6012L82.7324 45.2782V45.2782L83.1141 45.6012ZM92.8859 45.6012L93.2676 45.2782V45.2782L92.8859 45.6012ZM92.8859 59.3988L93.2676 59.7218V59.7218L92.8859 59.3988ZM83.0671 59.3988L83.4526 59.0803H83.4526L83.0671 59.3988ZM210 78.6197V79.1197H210.5V78.6197H210ZM210 25H210.5V24.5H210V25ZM188.945 78.6197H188.445V79.1197H188.945V78.6197ZM188.945 70.4437H189.445V68.7536L188.526 70.1716L188.945 70.4437ZM158.169 72.8204L158.552 72.4996L158.169 72.8204ZM153 25V24.5H152.5V25H153ZM173.96 25H174.46V24.5H173.96V25ZM175.999 59.463L176.368 59.126V59.126L175.999 59.463ZM188.945 25V24.5H188.445V25H188.945ZM252 61.18H252.5V60.68H252V61.18ZM252 79V79.5H252.5V79H252ZM243.233 43.2657V42.7657H242.733V43.2657H243.233ZM251.813 43.2657V43.7657H252.313V43.2657H251.813ZM251.813 25.8229H252.313V25.3229H251.813V25.8229ZM243.233 25.8229H242.733V26.3229H243.233V25.8229ZM243.233 13H243.733V12.5H243.233V13ZM222.529 13V12.5H222.029V13H222.529ZM222.529 25.8229V26.3229H223.029V25.8229H222.529ZM216 25.8229V25.3229H215.5V25.8229H216ZM216 43.2657H215.5V43.7657H216V43.2657ZM222.529 43.2657H223.029V42.7657H222.529V43.2657ZM330.376 28.3305L330.607 27.8871L330.376 28.3305ZM340.383 37.8936L339.95 38.1446L340.383 37.8936ZM340.383 67.1064L339.95 66.8554V66.8554L340.383 67.1064ZM330.376 76.6696L330.607 77.1129L330.376 76.6696ZM301.624 76.6696L301.393 77.1129L301.624 76.6696ZM291.617 67.1064L292.05 66.8554V66.8554L291.617 67.1064ZM291.617 37.8936L292.05 38.1446L291.617 37.8936ZM301.624 28.3305L301.393 27.8871L301.624 28.3305ZM311.114 45.6012L311.496 45.9242V45.9242L311.114 45.6012ZM320.886 59.3988L320.504 59.0758V59.0758L320.886 59.3988ZM320.886 45.6012L320.504 45.9242V45.9242L320.886 45.6012ZM408 79V79.5H408.5V79H408ZM387.04 79H386.54V79.5H387.04V79ZM372.055 79V79.5H372.555V79H372.055ZM351 79H350.5V79.5H351V79ZM351 25.3803V24.8803H350.5V25.3803H351ZM372.055 25.3803H372.555V24.8803H372.055V25.3803ZM372.055 33.5563H371.555V35.2464L372.474 33.8284L372.055 33.5563ZM455.001 30.2811L455.318 29.8942V29.8942L455.001 30.2811ZM425.554 27.1886L425.353 26.7306V26.7306L425.554 27.1886ZM418.015 33.1834L417.6 32.9055V32.9055L418.015 33.1834ZM418.487 51.263L418.111 51.5933L418.487 51.263ZM425.507 56.1159L425.675 55.6449L425.507 56.1159ZM435.637 58.7803L435.538 59.2705L435.549 59.2725L435.637 58.7803ZM442.61 60.4931L442.793 60.0281L442.61 60.4931ZM435.071 60.7785L435.568 60.7184L435.514 60.2785H435.071V60.7785ZM415 60.7785V60.2785H414.407L414.507 60.8632L415 60.7785ZM453.635 77.9066L453.444 77.4442L453.635 77.9066ZM461.362 72.1021L461.769 72.3918L461.362 72.1021ZM460.89 54.0225L460.516 54.3535L460.89 54.0225ZM453.493 48.9317L453.665 48.4622L453.493 48.9317ZM443.175 46.2197L443.074 46.7095L443.082 46.711L443.175 46.2197ZM436.438 44.4118L436.25 44.8754L436.438 44.4118ZM443.646 44.2215L443.163 44.351L443.263 44.7215H443.646V44.2215ZM463.152 44.2215V44.7215H463.759L463.643 44.1253L463.152 44.2215ZM259.5 11.4439C259.5 8.57172 260.54 6.2145 262.629 4.33551L261.96 3.59211C259.656 5.66487 258.5 8.29439 258.5 11.4439H259.5ZM262.626 18.4085C260.537 16.5595 259.5 14.2497 259.5 11.4439H258.5C258.5 14.5344 259.659 17.1173 261.963 19.1572L262.626 18.4085ZM271.047 21.1996C267.499 21.1996 264.71 20.2539 262.626 18.4085L261.963 19.1572C264.271 21.2009 267.316 22.1996 271.047 22.1996V21.1996ZM279.374 18.4085C277.289 20.2553 274.529 21.1996 271.047 21.1996V22.1996C274.718 22.1996 277.731 21.1995 280.037 19.1572L279.374 18.4085ZM282.5 11.4439C282.5 14.2497 281.463 16.5595 279.374 18.4085L280.037 19.1572C282.341 17.1173 283.5 14.5344 283.5 11.4439H282.5ZM279.371 4.33551C281.46 6.2145 282.5 8.57171 282.5 11.4439H283.5C283.5 8.29439 282.344 5.66487 280.04 3.59211L279.371 4.33551ZM271.047 1.5C274.527 1.5 277.286 2.45885 279.371 4.33551L280.04 3.59211C277.734 1.51702 274.72 0.5 271.047 0.5V1.5ZM262.629 4.33551C264.713 2.46027 267.501 1.5 271.047 1.5V0.5C267.314 0.5 264.268 1.5156 261.96 3.59211L262.629 4.33551ZM280.9 25.9337V79H281.9V25.9337H280.9ZM260.506 26.4337H281.4V25.4337H260.506V26.4337ZM261.006 79V25.9337H260.006V79H261.006ZM281.4 78.5H260.506V79.5H281.4V78.5ZM143.5 9V79H144.5V9H143.5ZM123 9.5H144V8.5H123V9.5ZM123.5 79V9H122.5V79H123.5ZM144 78.5H123V79.5H144V78.5ZM52.4202 70.2105C54.4748 67.0255 55.5 63.4505 55.5 59.4993H54.5C54.5 63.2675 53.5252 66.6527 51.5798 69.6684L52.4202 70.2105ZM43.4996 77.747C47.3812 75.9096 50.3627 73.3999 52.4202 70.2105L51.5798 69.6684C49.6373 72.6798 46.8093 75.0739 43.0718 76.8431L43.4996 77.747ZM29.6667 80.5C34.9925 80.5 39.6087 79.5888 43.4996 77.747L43.0718 76.8431C39.3437 78.6079 34.8805 79.5 29.6667 79.5V80.5ZM9.42247 74.7588C14.7648 78.5985 21.5249 80.5 29.6667 80.5V79.5C21.6814 79.5 15.14 77.6367 10.0061 73.9468L9.42247 74.7588ZM0.691406 57.8214C1.14367 65.2258 4.04554 70.8943 9.42247 74.7588L10.0061 73.9468C4.90684 70.2818 2.12618 64.909 1.68955 57.7604L0.691406 57.8214ZM23.6667 57.2909H1.19048V58.2909H23.6667V57.2909ZM28.8095 63.0805C27.3649 63.0805 26.3072 62.6374 25.5643 61.801C24.8071 60.9486 24.3191 59.6232 24.165 57.7499L23.1683 57.8319C23.3317 59.8184 23.8596 61.3877 24.8167 62.4651C25.788 63.5586 27.143 64.0805 28.8095 64.0805V63.0805ZM31.1038 62.3461C30.5473 62.8215 29.7984 63.0805 28.8095 63.0805V64.0805C29.9794 64.0805 30.9766 63.77 31.7533 63.1065L31.1038 62.3461ZM31.9286 60.2586C31.9286 61.2242 31.6344 61.8928 31.1038 62.3461L31.7533 63.1065C32.556 62.4208 32.9286 61.4443 32.9286 60.2586H31.9286ZM29.7535 56.9446C31.2488 57.792 31.9286 58.8918 31.9286 60.2586H32.9286C32.9286 58.4618 31.9893 57.0622 30.2465 56.0746L29.7535 56.9446ZM21.9852 53.8046C25.5985 55.0049 28.1789 56.0524 29.7535 56.9446L30.2465 56.0746C28.583 55.1319 25.9253 54.0597 22.3005 52.8556L21.9852 53.8046ZM11.2949 49.5036C14.1513 50.9749 17.7175 52.4081 21.9874 53.8053L22.2984 52.8549C18.0603 51.4681 14.5472 50.054 11.7528 48.6146L11.2949 49.5036ZM3.74014 42.9016C5.8759 45.804 8.3935 48.0092 11.2949 49.5036L11.7528 48.6146C9.00333 47.1985 6.60029 45.1011 4.54557 42.3089L3.74014 42.9016ZM0.5 31.5007C0.5 36.1322 1.56558 39.9465 3.74014 42.9016L4.54557 42.3089C2.52965 39.5694 1.5 35.9806 1.5 31.5007H0.5ZM3.97797 20.0527C1.65199 23.2195 0.5 27.0446 0.5 31.5007H1.5C1.5 27.225 2.60197 23.6154 4.78393 20.6447L3.97797 20.0527ZM13.4313 12.9093C9.45011 14.5222 6.29252 16.9015 3.97797 20.0527L4.78393 20.6447C6.97732 17.6584 9.97846 15.3871 13.8068 13.8362L13.4313 12.9093ZM26.8095 10.5C21.8665 10.5 17.4045 11.2998 13.4313 12.9093L13.8068 13.8362C17.6431 12.2821 21.9748 11.5 26.8095 11.5V10.5ZM46.3561 16.2062C41.4808 12.3842 34.9477 10.5 26.8095 10.5V11.5C34.7983 11.5 41.0906 13.3489 45.7391 16.9932L46.3561 16.2062ZM54.3561 32.7029C53.9043 25.5628 51.2489 20.042 46.3561 16.2062L45.7391 16.9932C50.3702 20.6238 52.9211 25.8595 53.3581 32.7661L54.3561 32.7029ZM31.0952 33.2345H53.8571V32.2345H31.0952V33.2345ZM26.7143 27.9195C27.889 27.9195 28.7543 28.312 29.3761 29.0663C30.0158 29.8424 30.4429 31.0566 30.5972 32.7791L31.5932 32.6899C31.4301 30.8691 30.9683 29.4258 30.1477 28.4303C29.3092 27.4129 28.1427 26.9195 26.7143 26.9195V27.9195ZM24.8665 28.5904C25.3327 28.1516 25.9345 27.9195 26.7143 27.9195V26.9195C25.7163 26.9195 24.8578 27.2253 24.1811 27.8622L24.8665 28.5904ZM24.1667 30.6465C24.1667 29.6559 24.4283 29.0028 24.8665 28.5904L24.1811 27.8622C23.4764 28.5254 23.1667 29.4858 23.1667 30.6465H24.1667ZM26.3417 33.7706C24.8287 32.9132 24.1667 31.8702 24.1667 30.6465H23.1667C23.1667 32.3334 24.1237 33.6631 25.8487 34.6406L26.3417 33.7706ZM33.8321 36.9133C30.4105 35.7135 27.9208 34.6655 26.3417 33.7706L25.8487 34.6406C27.5077 35.5808 30.0657 36.6524 33.5012 37.857L33.8321 36.9133ZM44.6138 41.4509C41.7598 39.9489 38.1641 38.437 33.8326 36.9135L33.5008 37.8568C37.8042 39.3704 41.3513 40.864 44.1481 42.3359L44.6138 41.4509ZM52.2117 48.1451C50.0454 45.213 47.5135 42.977 44.6138 41.4509L44.1481 42.3359C46.8991 43.7837 49.3197 45.9136 51.4074 48.7393L52.2117 48.1451ZM55.5 59.4993C55.5 54.9275 54.4169 51.1299 52.2117 48.1451L51.4074 48.7393C53.4562 51.5124 54.5 55.0862 54.5 59.4993H55.5ZM88 25.5C93.2528 25.5 97.9641 26.5946 102.145 28.7738L102.607 27.8871C98.2686 25.6257 93.396 24.5 88 24.5V25.5ZM73.8553 28.7738C78.0359 26.5946 82.7472 25.5 88 25.5V24.5C82.604 24.5 77.7314 25.6257 73.393 27.8871L73.8553 28.7738ZM64.0499 38.1446C66.414 34.0713 69.6798 30.9504 73.8553 28.7738L73.393 27.8871C69.0496 30.1511 65.6442 33.4056 63.185 37.6426L64.0499 38.1446ZM60.5 52.5C60.5 46.9912 61.6892 42.2119 64.0499 38.1446L63.185 37.6426C60.7224 41.8856 59.5 46.8438 59.5 52.5H60.5ZM64.0499 66.8554C61.6892 62.7881 60.5 58.0088 60.5 52.5H59.5C59.5 58.1562 60.7224 63.1144 63.185 67.3574L64.0499 66.8554ZM73.8553 76.2262C69.6798 74.0497 66.414 70.9287 64.0499 66.8554L63.185 67.3574C65.6442 71.5944 69.0496 74.8488 73.393 77.1129L73.8553 76.2262ZM88 79.5C82.7472 79.5 78.0359 78.4054 73.8553 76.2262L73.393 77.1129C77.7314 79.3743 82.604 80.5 88 80.5V79.5ZM102.145 76.2262C97.9641 78.4054 93.2528 79.5 88 79.5V80.5C93.396 80.5 98.2686 79.3743 102.607 77.1129L102.145 76.2262ZM111.95 66.8554C109.586 70.9287 106.32 74.0497 102.145 76.2262L102.607 77.1129C106.95 74.8488 110.356 71.5944 112.815 67.3574L111.95 66.8554ZM115.5 52.5C115.5 58.0088 114.311 62.7881 111.95 66.8554L112.815 67.3574C115.278 63.1144 116.5 58.1562 116.5 52.5H115.5ZM111.95 38.1446C114.311 42.2119 115.5 46.9912 115.5 52.5H116.5C116.5 46.8438 115.278 41.8856 112.815 37.6426L111.95 38.1446ZM102.145 28.7738C106.32 30.9504 109.586 34.0713 111.95 38.1446L112.815 37.6426C110.356 33.4056 106.95 30.1511 102.607 27.8871L102.145 28.7738ZM88 42.7699C85.9031 42.7699 84.1376 43.618 82.7324 45.2782L83.4957 45.9242C84.7215 44.476 86.2132 43.7699 88 43.7699V42.7699ZM93.2676 45.2782C91.8624 43.618 90.0969 42.7699 88 42.7699V43.7699C89.7868 43.7699 91.2785 44.476 92.5043 45.9242L93.2676 45.2782ZM95.3591 52.5C95.3591 49.3934 94.6894 46.9581 93.2676 45.2782L92.5043 45.9242C93.7133 47.3527 94.3591 49.5167 94.3591 52.5H95.3591ZM93.2676 59.7218C94.6894 58.0419 95.3591 55.6066 95.3591 52.5H94.3591C94.3591 55.4833 93.7133 57.6473 92.5043 59.0758L93.2676 59.7218ZM88 62.2301C90.0969 62.2301 91.8624 61.382 93.2676 59.7218L92.5043 59.0758C91.2785 60.524 89.7868 61.2301 88 61.2301V62.2301ZM82.6817 59.7173C84.0601 61.3857 85.8454 62.2301 88 62.2301V61.2301C86.1457 61.2301 84.6423 60.5203 83.4526 59.0803L82.6817 59.7173ZM80.6409 52.5C80.6409 55.6043 81.2939 58.0376 82.6817 59.7173L83.4526 59.0803C82.2721 57.6515 81.6409 55.4856 81.6409 52.5H80.6409ZM82.7324 45.2782C81.3106 46.9581 80.6409 49.3934 80.6409 52.5H81.6409C81.6409 49.5167 82.2867 47.3527 83.4957 45.9242L82.7324 45.2782ZM210.5 78.6197V25H209.5V78.6197H210.5ZM188.945 79.1197H210V78.1197H188.945V79.1197ZM188.445 70.4437V78.6197H189.445V70.4437H188.445ZM182.603 77.0565C185.419 75.4345 187.675 73.3207 189.365 70.7157L188.526 70.1716C186.927 72.637 184.789 74.6429 182.104 76.19L182.603 77.0565ZM172.537 79.5C176.402 79.5 179.763 78.6926 182.603 77.0565L182.104 76.19C179.443 77.7229 176.261 78.5 172.537 78.5V79.5ZM157.785 73.1412C161.34 77.3914 166.28 79.5 172.537 79.5V78.5C166.529 78.5 161.889 76.4889 158.552 72.4996L157.785 73.1412ZM152.5 56.088C152.5 63.2037 154.244 68.9068 157.785 73.1412L158.552 72.4996C155.202 68.4946 153.5 63.0428 153.5 56.088H152.5ZM152.5 25V56.088H153.5V25H152.5ZM173.96 24.5H153V25.5H173.96V24.5ZM174.46 53.4261V25H173.46V53.4261H174.46ZM176.368 59.126C175.113 57.7506 174.46 55.8699 174.46 53.4261H173.46C173.46 56.0526 174.166 58.1965 175.63 59.8001L176.368 59.126ZM181.453 61.1972C179.297 61.1972 177.62 60.4977 176.368 59.126L175.63 59.8001C177.097 61.4073 179.056 62.1972 181.453 62.1972V61.1972ZM186.58 59.1303C185.364 60.4947 183.676 61.1972 181.453 61.1972V62.1972C183.908 62.1972 185.887 61.4102 187.327 59.7957L186.58 59.1303ZM188.445 53.4261C188.445 55.8728 187.806 57.7552 186.58 59.1303L187.327 59.7957C188.756 58.192 189.445 56.0497 189.445 53.4261H188.445ZM188.445 25V53.4261H189.445V25H188.445ZM210 24.5H188.945V25.5H210V24.5ZM251.5 61.18V79H252.5V61.18H251.5ZM247.057 61.68H252V60.68H247.057V61.68ZM243.773 60.6925C244.503 61.3911 245.642 61.68 247.057 61.68V60.68C245.737 60.68 244.917 60.4032 244.465 59.9703L243.773 60.6925ZM242.733 57.5971C242.733 58.9185 243.042 59.9921 243.773 60.6925L244.465 59.9703C244.015 59.5393 243.733 58.7901 243.733 57.5971H242.733ZM242.733 43.2657V57.5971H243.733V43.2657H242.733ZM251.813 42.7657H243.233V43.7657H251.813V42.7657ZM251.313 25.8229V43.2657H252.313V25.8229H251.313ZM243.233 26.3229H251.813V25.3229H243.233V26.3229ZM242.733 13V25.8229H243.733V13H242.733ZM222.529 13.5H243.233V12.5H222.529V13.5ZM223.029 25.8229V13H222.029V25.8229H223.029ZM216 26.3229H222.529V25.3229H216V26.3229ZM216.5 43.2657V25.8229H215.5V43.2657H216.5ZM222.529 42.7657H216V43.7657H222.529V42.7657ZM223.029 57.22V43.2657H222.029V57.22H223.029ZM244.166 78.5C237.031 78.5 231.772 76.7051 228.293 73.2026C224.812 69.6996 223.029 64.4038 223.029 57.22H222.029C222.029 64.5563 223.851 70.1504 227.583 73.9074C231.316 77.6649 236.875 79.5 244.166 79.5V78.5ZM252 78.5H244.166V79.5H252V78.5ZM330.607 27.8871C326.269 25.6257 321.396 24.5 316 24.5V25.5C321.253 25.5 325.964 26.5946 330.145 28.7738L330.607 27.8871ZM340.815 37.6426C338.356 33.4056 334.95 30.1512 330.607 27.8871L330.145 28.7738C334.32 30.9503 337.586 34.0713 339.95 38.1446L340.815 37.6426ZM344.5 52.5C344.5 46.8438 343.278 41.8856 340.815 37.6426L339.95 38.1446C342.311 42.2119 343.5 46.9912 343.5 52.5H344.5ZM340.815 67.3574C343.278 63.1144 344.5 58.1562 344.5 52.5H343.5C343.5 58.0088 342.311 62.7881 339.95 66.8554L340.815 67.3574ZM330.607 77.1129C334.95 74.8488 338.356 71.5944 340.815 67.3574L339.95 66.8554C337.586 70.9287 334.32 74.0497 330.145 76.2262L330.607 77.1129ZM316 80.5C321.396 80.5 326.269 79.3743 330.607 77.1129L330.145 76.2262C325.964 78.4054 321.253 79.5 316 79.5V80.5ZM301.393 77.1129C305.731 79.3743 310.604 80.5 316 80.5V79.5C310.747 79.5 306.036 78.4054 301.855 76.2262L301.393 77.1129ZM291.185 67.3574C293.644 71.5944 297.05 74.8488 301.393 77.1129L301.855 76.2262C297.68 74.0497 294.414 70.9287 292.05 66.8554L291.185 67.3574ZM287.5 52.5C287.5 58.1562 288.722 63.1144 291.185 67.3574L292.05 66.8554C289.689 62.7881 288.5 58.0088 288.5 52.5H287.5ZM291.185 37.6426C288.722 41.8856 287.5 46.8438 287.5 52.5H288.5C288.5 46.9912 289.689 42.2119 292.05 38.1446L291.185 37.6426ZM301.393 27.8871C297.05 30.1512 293.644 33.4056 291.185 37.6426L292.05 38.1446C294.414 34.0713 297.68 30.9503 301.855 28.7738L301.393 27.8871ZM316 24.5C310.604 24.5 305.731 25.6257 301.393 27.8871L301.855 28.7738C306.036 26.5946 310.747 25.5 316 25.5V24.5ZM311.496 45.9242C312.721 44.476 314.213 43.7699 316 43.7699V42.7699C313.903 42.7699 312.138 43.618 310.732 45.2782L311.496 45.9242ZM309.641 52.5C309.641 49.5167 310.287 47.3527 311.496 45.9242L310.732 45.2782C309.311 46.9581 308.641 49.3934 308.641 52.5H309.641ZM311.453 59.0803C310.272 57.6515 309.641 55.4856 309.641 52.5H308.641C308.641 55.6043 309.294 58.0376 310.682 59.7173L311.453 59.0803ZM316 61.2301C314.146 61.2301 312.642 60.5203 311.453 59.0803L310.682 59.7173C312.06 61.3857 313.845 62.2301 316 62.2301V61.2301ZM320.504 59.0758C319.279 60.524 317.787 61.2301 316 61.2301V62.2301C318.097 62.2301 319.862 61.382 321.268 59.7218L320.504 59.0758ZM322.359 52.5C322.359 55.4833 321.713 57.6473 320.504 59.0758L321.268 59.7218C322.689 58.0419 323.359 55.6066 323.359 52.5H322.359ZM320.504 45.9242C321.713 47.3527 322.359 49.5167 322.359 52.5H323.359C323.359 49.3934 322.689 46.9581 321.268 45.2782L320.504 45.9242ZM316 43.7699C317.787 43.7699 319.279 44.476 320.504 45.9242L321.268 45.2782C319.862 43.618 318.097 42.7699 316 42.7699V43.7699ZM403.215 30.8588C399.66 26.6086 394.72 24.5 388.463 24.5V25.5C394.471 25.5 399.111 27.5111 402.448 31.5004L403.215 30.8588ZM408.5 47.912C408.5 40.7963 406.756 35.0932 403.215 30.8588L402.448 31.5004C405.798 35.5054 407.5 40.9572 407.5 47.912H408.5ZM408.5 79V47.912H407.5V79H408.5ZM387.04 79.5H408V78.5H387.04V79.5ZM386.54 50.5739V79H387.54V50.5739H386.54ZM384.632 44.874C385.887 46.2494 386.54 48.1301 386.54 50.5739H387.54C387.54 47.9474 386.834 45.8035 385.37 44.1999L384.632 44.874ZM379.547 42.8028C381.703 42.8028 383.38 43.5023 384.632 44.874L385.37 44.1999C383.903 42.5928 381.944 41.8028 379.547 41.8028V42.8028ZM374.42 44.8697C375.636 43.5053 377.324 42.8028 379.547 42.8028V41.8028C377.092 41.8028 375.113 42.5898 373.673 44.2043L374.42 44.8697ZM372.555 50.5739C372.555 48.1272 373.194 46.2448 374.42 44.8697L373.673 44.2043C372.244 45.808 371.555 47.9503 371.555 50.5739H372.555ZM372.555 79V50.5739H371.555V79H372.555ZM351 79.5H372.055V78.5H351V79.5ZM350.5 25.3803V79H351.5V25.3803H350.5ZM372.055 24.8803H351V25.8803H372.055V24.8803ZM372.555 33.5563V25.3803H371.555V33.5563H372.555ZM378.397 26.9435C375.581 28.5655 373.325 30.6793 371.635 33.2843L372.474 33.8284C374.073 31.363 376.211 29.357 378.896 27.81L378.397 26.9435ZM388.463 24.5C384.598 24.5 381.237 25.3074 378.397 26.9435L378.896 27.81C381.557 26.2771 384.739 25.5 388.463 25.5V24.5ZM437.71 25.5C444.854 25.5 450.494 27.2399 454.684 30.6681L455.318 29.8942C450.901 26.2809 445.014 24.5 437.71 24.5V25.5ZM425.755 27.6465C429.004 26.2224 432.984 25.5 437.71 25.5V24.5C432.887 24.5 428.762 25.2366 425.353 26.7306L425.755 27.6465ZM418.431 33.4613C420.065 31.0171 422.496 29.0747 425.755 27.6465L425.353 26.7306C421.953 28.2206 419.358 30.2747 417.6 32.9055L418.431 33.4613ZM415.971 41.8426C415.971 38.6999 416.793 35.9114 418.431 33.4613L417.6 32.9055C415.845 35.5303 414.971 38.5146 414.971 41.8426H415.971ZM418.862 50.9326C416.954 48.7656 415.971 45.7563 415.971 41.8426H414.971C414.971 45.9219 415.998 49.1928 418.111 51.5933L418.862 50.9326ZM425.675 55.6449C423.091 54.724 420.82 53.1574 418.862 50.9326L418.111 51.5933C420.173 53.936 422.583 55.6048 425.339 56.5869L425.675 55.6449ZM435.736 58.2902C431.666 57.4682 428.314 56.5857 425.675 55.6449L425.339 56.5869C428.039 57.5492 431.441 58.443 435.538 59.2704L435.736 58.2902ZM442.793 60.0281C441.299 59.4377 438.933 58.8599 435.724 58.288L435.549 59.2725C438.747 59.8425 441.03 60.4066 442.426 60.9581L442.793 60.0281ZM445.277 63.1574C445.277 62.4464 445.061 61.81 444.623 61.2719C444.192 60.7417 443.568 60.3343 442.793 60.0281L442.426 60.9581C443.096 61.2228 443.556 61.5449 443.847 61.9029C444.132 62.2528 444.277 62.6632 444.277 63.1574H445.277ZM441.573 65.9412C442.685 65.9412 443.609 65.7457 444.266 65.2774C444.954 64.7869 445.277 64.0505 445.277 63.1574H444.277C444.277 63.7869 444.066 64.1924 443.686 64.4631C443.275 64.756 442.597 64.9412 441.573 64.9412V65.9412ZM434.575 60.8387C434.777 62.5055 435.471 63.8088 436.688 64.6818C437.889 65.5429 439.538 65.9412 441.573 65.9412V64.9412C439.651 64.9412 438.237 64.5624 437.271 63.8692C436.321 63.188 435.742 62.16 435.568 60.7184L434.575 60.8387ZM415 61.2785H435.071V60.2785H415V61.2785ZM423.681 74.6479C419.277 71.4358 416.542 66.8002 415.493 60.6939L414.507 60.8632C415.594 67.1906 418.45 72.0706 423.092 75.4559L423.681 74.6479ZM441.667 79.5C434.071 79.5 428.092 77.8649 423.681 74.6479L423.092 75.4559C427.727 78.8363 433.936 80.5 441.667 80.5V79.5ZM453.444 77.4442C450.125 78.8096 446.204 79.5 441.667 79.5V80.5C446.303 80.5 450.359 79.7948 453.825 78.369L453.444 77.4442ZM460.954 71.8124C459.26 74.1948 456.768 76.0769 453.444 77.4442L453.825 78.369C457.286 76.945 459.945 74.9574 461.769 72.3918L460.954 71.8124ZM463.5 63.6332C463.5 66.7062 462.65 69.4269 460.954 71.8124L461.769 72.3918C463.591 69.8292 464.5 66.904 464.5 63.6332H463.5ZM460.516 54.3535C462.486 56.5849 463.5 59.6581 463.5 63.6332H464.5C464.5 59.4883 463.44 56.1544 461.265 53.6915L460.516 54.3535ZM453.321 49.4012C456.099 50.4184 458.496 52.0668 460.516 54.3535L461.265 53.6915C459.139 51.2839 456.604 49.5383 453.665 48.4622L453.321 49.4012ZM443.082 46.711C447.084 47.4688 450.496 48.3664 453.321 49.4012L453.665 48.4622C450.774 47.4035 447.307 46.4932 443.268 45.7285L443.082 46.711ZM436.25 44.8754C437.708 45.4641 439.991 46.074 443.074 46.7094L443.276 45.73C440.203 45.0967 437.994 44.5013 436.625 43.9482L436.25 44.8754ZM433.817 41.9377C433.817 43.3044 434.741 44.2656 436.25 44.8754L436.625 43.9482C435.307 43.416 434.817 42.7279 434.817 41.9377H433.817ZM437.238 39.154C436.213 39.154 435.352 39.352 434.74 39.831C434.104 40.3283 433.817 41.0621 433.817 41.9377H434.817C434.817 41.2909 435.018 40.8828 435.356 40.6188C435.717 40.3366 436.316 40.154 437.238 40.154V39.154ZM444.129 44.0919C443.697 42.4809 442.903 41.2302 441.722 40.3887C440.546 39.5505 439.037 39.154 437.238 39.154V40.154C438.895 40.154 440.182 40.5187 441.142 41.203C442.097 41.884 442.779 42.917 443.163 44.351L444.129 44.0919ZM463.152 43.7215H443.646V44.7215H463.152V43.7215ZM454.684 30.6681C458.892 34.1107 461.551 38.6519 462.661 44.3176L463.643 44.1253C462.491 38.2455 459.716 33.4931 455.318 29.8942L454.684 30.6681Z" fill="#185FC9"/>
</svg>
