<svg width="183" height="184" viewBox="0 0 183 184" fill="none" xmlns="http://www.w3.org/2000/svg">
<path fill-rule="evenodd" clip-rule="evenodd" d="M27.3863 0L29 2.096L1.61367 23L0 20.904L27.3863 0ZM72.3732 0L74 2.13675L1.62675 58L0 55.8633L72.3732 0ZM119 3.12011L117.373 1L0 90.8799L1.62698 93L119 3.12011ZM163.369 1L165 3.12169L1.6311 128L0 125.878L163.369 1ZM182 24.1305L180.374 22L0 160.869L1.62618 163L182 24.1305ZM180.373 56L182 58.1291L19.6269 183L18 180.871L180.373 56ZM182 93.1226L180.371 91L63 180.877L64.6289 183L182 93.1226ZM181.37 126L183 128.141L110.63 184L109 181.859L181.37 126ZM182 163.156L180.395 161L154 181.844L155.605 184L182 163.156Z" fill="#D9DEE2"/>
</svg>
