<svg width="36" height="36" viewBox="0 0 36 36" fill="none" xmlns="http://www.w3.org/2000/svg">
<path d="M14.675 6.39995C14.7666 6.58655 14.8272 6.78638 14.8543 6.99181L15.3555 14.4437L15.6043 18.1891C15.6068 18.5743 15.6673 18.957 15.7836 19.3249C16.0841 20.0386 16.8069 20.4922 17.5933 20.4606L29.5764 19.6768C30.0953 19.6682 30.5964 19.8623 30.9694 20.2163C31.2803 20.5113 31.481 20.8972 31.5442 21.3123L31.5654 21.5643C31.0696 28.4308 26.0265 34.158 19.1742 35.6364C12.322 37.1148 5.29535 33.9917 1.90928 27.9628C0.933098 26.2113 0.323371 24.2861 0.115887 22.3002C0.0292114 21.7123 -0.00895413 21.1185 0.00176261 20.5246C-0.00893871 13.1629 5.23345 6.79852 12.5718 5.26422C13.455 5.1267 14.3209 5.59426 14.675 6.39995Z" fill="white"/>
<path opacity="0.4" d="M19.566 0.00147453C27.7738 0.210288 34.6722 6.11242 36 14.0621L35.9873 14.1208L35.9511 14.2061L35.9561 14.4403C35.9373 14.7505 35.8176 15.049 35.6111 15.2901C35.3961 15.5412 35.1024 15.7123 34.7789 15.7786L34.5816 15.8057L20.7562 16.7015C20.2963 16.7468 19.8384 16.5986 19.4964 16.2935C19.2114 16.0393 19.0292 15.6962 18.9778 15.3264L18.0498 1.52111C18.0336 1.47443 18.0336 1.42383 18.0498 1.37715C18.0625 0.99661 18.23 0.636912 18.5149 0.378414C18.7998 0.119916 19.1784 -0.0158407 19.566 0.00147453Z" fill="white"/>
</svg>
