<svg width="42" height="37" viewBox="0 0 42 37" fill="none" xmlns="http://www.w3.org/2000/svg">
<path opacity="0.4" d="M37.5573 13.5C36.7986 13.5001 36.1808 12.8715 36.1706 12.0894V10.0308C36.1953 8.28335 35.5443 6.59765 34.3614 5.3459C33.1784 4.09415 31.5609 3.37931 29.8658 3.35924H28.3867C27.6208 3.35924 27 2.71918 27 1.92962C27 1.14006 27.6208 0.5 28.3867 0.5H29.8658C34.9281 0.562632 38.9999 4.81142 38.9995 10.0308V12.0704C39.0095 12.446 38.8717 12.8098 38.6175 13.0791C38.3633 13.3483 38.0142 13.5001 37.6498 13.5H37.5573Z" fill="#1974FF"/>
<path opacity="0.4" d="M4.38308 13.4999C4.01815 13.505 3.66646 13.3586 3.40667 13.0935C3.14687 12.8284 3.00064 12.4668 3.00067 12.0893V10.0307C2.97111 7.51357 3.91736 5.08901 5.62819 3.29829C7.33901 1.50757 9.67194 0.499814 12.1062 0.5H13.6176C14.3811 0.5 15 1.14006 15 1.9296C15 2.71915 14.3811 3.35921 13.6176 3.35921H12.1246C10.4204 3.35382 8.78587 4.05808 7.58953 5.31319C6.39318 6.5683 5.73576 8.2686 5.76549 10.0307V12.0893C5.75541 12.8714 5.13943 13.4999 4.38308 13.4999Z" fill="#1974FF"/>
<path d="M39 21.5V26.9352C38.9414 32.164 34.9607 36.3965 30.0134 36.4903H28.5309C28.0061 36.5547 27.4928 36.295 27.2112 35.8225C26.9296 35.35 26.9296 34.7486 27.2112 34.2761C27.4928 33.8036 28.0061 33.5439 28.5309 33.6083H30.0134C33.5037 33.5976 36.3278 30.6044 36.3278 26.9158V21.5H39Z" fill="#1974FF"/>
<path d="M15 35.0503C14.9901 35.8466 14.3769 36.4896 13.6175 36.5H12.106C7.05905 36.4365 2.99964 32.1279 3 26.8351V21.5H5.76498V26.9317C5.76492 30.6104 8.59799 33.5986 12.106 33.6198H13.6175C13.9825 33.6147 14.3342 33.7631 14.594 34.0319C14.8538 34.3007 15 34.6675 15 35.0503Z" fill="#1974FF"/>
<path d="M42 20.0006C42 20.8287 41.3809 21.5 40.6172 21.5H1.38279C0.619097 21.5 0 20.8287 0 20.0006C0 19.1725 0.619097 18.5012 1.38279 18.5012H40.5619C40.9381 18.4849 41.3042 18.6356 41.5756 18.9186C41.847 19.2016 42.0003 19.5923 42 20.0006Z" fill="#1974FF"/>
<path opacity="0.4" d="M30 15V12.6964C30 11.5835 29.5485 10.5161 28.7449 9.72911C27.9413 8.94212 26.8514 8.5 25.715 8.5H15.285C12.9185 8.5 11 10.3788 11 12.6964V15C11.0094 15.2722 11.2326 15.4908 11.5106 15.5H29.4894C29.7674 15.4908 29.9906 15.2722 30 15Z" fill="#1974FF"/>
<path d="M30 21.5V23.7594C30 26.3775 28.0815 28.5 25.715 28.5H15.285C12.9185 28.5 11 26.3775 11 23.7594V21.5H30Z" fill="#1974FF"/>
</svg>
